#N canvas 191 295 1168 530 12;
#X obj 78 37 tgl 30 0 enc empty Encoding 0 -10 0 12 #fcfcfc #000000 #000000 0 1;
#X obj 18 37 bng 30 250 50 0 load-sample empty Sample 0 -10 0 12 #fcfcfc #000000 #000000;
#N canvas 616 176 799 568 bending 0;
#X obj 102 102 cnv 19 465 365 empty empty empty 20 12 0 12 #dfdfdf #404040 0;
#N canvas 324 362 450 278 (subpatch) 0;
#X array weights 2.62144e+06 float 2;
#X coords 0 1.5 2.62144e+06 -1.5 400 200 1 0 0;
#X restore 114 230 graph;
#X obj 117 430 hsl 395 19 0 1 0 0 weights_roll weights_roll_rec empty -2 -10 0 12 #fcfcfc #000000 #000000 0 1;
#X obj 514 232 vsl 19 195 -3 3 0 0 weights_shift weights_shift_rec empty 0 -9 0 12 #fcfcfc #000000 #000000 0 1;
#X obj 533 232 vsl 19 195 -1 30 0 0 weights_multiply weights_multiply_rec empty 0 -9 0 12 #fcfcfc #000000 #000000 0 1;
#X obj 495 211 tgl 19 0 weights_flip weights_flip_rec empty 0 -10 0 12 #fcfcfc #000000 #000000 0 1;
#X text 518 212 flip;
#N canvas 559 302 706 374 guts 0;
#X msg 27 259 get_weights \$1;
#X obj 27 202 r layer_name;
#N canvas 179 217 450 278 (subpatch) 0;
#X array b_orig 2.62144e+06 float 2;
#X coords 0 1.5 2.62144e+06 -1.5 200 140 1 0 0;
#X restore 333 106 graph;
#N canvas 224 106 912 736 operations 0;
#X obj 688 84 r weights_roll;
#X obj 369 85 r weights_multiply;
#X obj 176 85 r weights_shift;
#X obj 27 123 array get weights;
#X obj 369 210 t b f;
#X text 174 56 1 SHIFT;
#X text 369 56 2 MULTIPLY;
#X text 688 56 3 ROLL;
#X obj 507 87 r weights_flip;
#X obj 507 111 t b f;
#X obj 27 151 array set b_orig;
#X obj 25 220 r btn-restore;
#X obj 27 95 r btn-store;
#X obj 25 297 array set weights;
#X obj 25 269 array get b_orig;
#X text 26 73 STORE IN MEMORY;
#X obj 25 590 array get weights;
#X obj 25 667 list trim;
#X obj 145 504 r layer_name;
#X obj 106 560 symbol;
#X obj 25 524 t b b;
#X obj 25 639 list prepend set_weights;
#X obj 25 615 list prepend;
#X obj 145 537 symbol;
#X obj 25 493 r btn-bend;
#X text 25 468 BENDING ACTION;
#X obj 25 693 s msg_in;
#X obj 374 497 *;
#X obj 373 351 until;
#X msg 416 351 0;
#X obj 373 375 f;
#X obj 403 375 + 1;
#X obj 373 405 t f f;
#X obj 374 549 +;
#X obj 373 297 array size b_orig;
#X obj 373 434 array get b_orig 0 1;
#X obj 413 499 +;
#X obj 425 548 mod;
#X obj 373 324 t f b f, f 13;
#X obj 176 209 t b f;
#X obj 687 204 t b f;
#X obj 502 476 *;
#X obj 374 611 array set weights;
#X obj 85 350 s weights_multiply_rec;
#X obj 75 380 s weights_roll_rec;
#X obj 65 410 s weights_shift_rec;
#X obj 55 437 s weights_flip_rec;
#X msg 55 324 0;
#X text 24 199 RESTORE FROM MEMORY;
#X obj 25 244 t b b;
#X text 322 492 mul;
#X text 324 546 add;
#X text 450 501 rotate;
#X obj 369 171 expr ($f1+1) * ($f2*-2+1);
#X connect 0 0 40 0;
#X connect 1 0 53 0;
#X connect 2 0 39 0;
#X connect 3 0 10 0;
#X connect 4 0 34 0;
#X connect 4 1 27 1;
#X connect 8 0 9 0;
#X connect 9 0 53 0;
#X connect 9 1 53 1;
#X connect 11 0 49 0;
#X connect 12 0 3 0;
#X connect 14 0 13 0;
#X connect 16 0 22 0;
#X connect 17 0 26 0;
#X connect 18 0 23 0;
#X connect 19 0 22 1;
#X connect 20 0 16 0;
#X connect 20 1 19 0;
#X connect 21 0 17 0;
#X connect 22 0 21 0;
#X connect 23 0 19 1;
#X connect 24 0 20 0;
#X connect 27 0 33 0;
#X connect 28 0 30 0;
#X connect 29 0 30 1;
#X connect 30 0 31 0;
#X connect 30 0 32 0;
#X connect 31 0 30 1;
#X connect 32 0 35 0;
#X connect 32 1 36 0;
#X connect 33 0 42 0;
#X connect 34 0 38 0;
#X connect 35 0 27 0;
#X connect 36 0 37 0;
#X connect 37 0 42 1;
#X connect 38 0 28 0;
#X connect 38 1 29 0;
#X connect 38 2 37 1;
#X connect 38 2 41 0;
#X connect 39 0 34 0;
#X connect 39 1 33 1;
#X connect 40 0 34 0;
#X connect 40 1 41 1;
#X connect 41 0 36 1;
#X connect 47 0 43 0;
#X connect 47 0 45 0;
#X connect 47 0 44 0;
#X connect 47 0 46 0;
#X connect 49 0 14 0;
#X connect 49 1 47 0;
#X connect 53 0 4 0;
#X restore 27 142 pd operations;
#X text 130 143 weights operations;
#X text 145 220 loading weights;
#N canvas 573 121 722 733 routing 0;
#X obj 131 96 inlet;
#X obj 187 482 list length;
#X obj 33 509 list;
#X obj 204 534 array size weights;
#X obj 131 456 t b a a;
#X obj 14 477 del 1;
#X floatatom 226 507 16 0 0 0 - - - 0;
#N canvas 324 362 450 300 reset_sliders 0;
#X obj 37 37 inlet;
#X obj 37 101 send weights_roll_rec;
#X obj 37 131 send weights_shift_rec;
#X msg 37 68 0;
#X obj 37 158 send weights_multiply_rec;
#X obj 37 185 send weights_flip_rec;
#X obj 116 49 loadbang;
#X connect 0 0 3 0;
#X connect 3 0 1 0;
#X connect 3 0 2 0;
#X connect 3 0 4 0;
#X connect 3 0 5 0;
#X connect 6 0 3 0;
#X restore 14 597 pd reset_sliders;
#X text 31 20 Routes the messages other than audio signal;
#X text 31 40 Received from the nn~ object.;
#X obj 45 535 array set weights;
#X obj 41 560 array set b_orig;
#X obj 187 559 array size b_orig;
#X obj 203 217 list length;
#X obj 203 269 list store;
#X obj 203 298 list split 1;
#X obj 203 338 list trim;
#X obj 131 134 route layer layers, f 21;
#X obj 203 362 print -n;
#X obj 203 242 until;
#X obj 203 179 t a a;
#X text 307 198 This displays layers;
#X text 308 212 one by one in new lines;
#X connect 0 0 17 0;
#X connect 1 0 3 0;
#X connect 1 0 6 0;
#X connect 1 0 12 0;
#X connect 2 0 10 0;
#X connect 2 0 11 0;
#X connect 4 0 5 0;
#X connect 4 1 2 1;
#X connect 4 2 1 0;
#X connect 5 0 2 0;
#X connect 5 0 7 0;
#X connect 13 0 19 0;
#X connect 14 0 15 0;
#X connect 15 0 16 0;
#X connect 15 1 14 1;
#X connect 16 0 18 0;
#X connect 17 0 4 0;
#X connect 17 1 20 0;
#X connect 19 0 14 0;
#X connect 20 0 13 0;
#X connect 20 1 14 1;
#X restore 331 54 pd routing;
#X msg 27 52 layers;
#X msg 135 51 reload;
#X obj 135 27 r btn-reload;
#X obj 27 27 r btn-layers;
#X obj 27 228 symbol;
#X obj 27 287 s msg_in;
#X obj 27 87 s msg_in;
#X obj 331 30 r msg_out;
#X connect 0 0 12 0;
#X connect 1 0 11 0;
#X connect 7 0 13 0;
#X connect 8 0 13 0;
#X connect 9 0 8 0;
#X connect 10 0 7 0;
#X connect 11 0 0 0;
#X connect 14 0 6 0;
#X restore 514 430 pd guts;
#X obj 435 114 bng 40 250 50 0 btn-store empty empty 0 -10 0 12 #fcfcfc #000000 #000000;
#X obj 435 154 bng 40 250 50 0 btn-restore empty empty 0 -10 0 12 #fcfcfc #000000 #000000;
#X text 442 125 str;
#X text 442 165 res;
#X obj 475 114 bng 80 250 50 0 btn-bend empty empty 0 -10 0 12 #ffffff #000000 #000000;
#X text 499 146 BEND;
#X symbolatom 114 132 41 0 0 0 - layer_name - 12;
#X text 112 113 LAYER NAME;
#X obj 114 175 bng 19 250 50 0 btn-layers empty empty 0 -10 0 12 #fcfcfc #000000 #000000;
#X text 135 175 list layer names;
#X obj 57 12 inlet;
#X obj 57 64 s layer_name;
#X obj 57 36 symbol;
#X obj 267 175 bng 19 250 50 0 btn-reload empty empty 0 -10 0 12 #fcfcfc #000000 #000000;
#X text 288 175 reload model;
#X connect 18 0 20 0;
#X connect 20 0 19 0;
#X coords 0 -1 1 1 469 369 2 100 100;
#X restore 207 67 pd bending;
#N canvas 309 107 1344 780 model 0;
#X obj 80 47 r~ sample_audio;
#X obj 820 248 r off2;
#X obj 860 298 r off3;
#X obj 896 348 r off4;
#X obj 935 398 r off5;
#X obj 972 448 r off6;
#X obj 1010 498 r off7;
#X obj 1048 550 r off8;
#X text 78 24 ENCODING;
#X text 780 172 DECODING;
#X obj 707 582 r msg_in;
#X obj 950 633 s msg_out;
#X obj 785 632 s~ model_audio;
#X obj 887 196 r off1;
#X obj 13 46 r msg_in;
#X obj 785 196 catch~ l1;
#X obj 908 248 catch~ l2;
#X obj 948 298 catch~ l3;
#X obj 984 348 catch~ l4;
#X obj 1023 398 catch~ l5;
#X obj 1060 448 catch~ l6;
#X obj 1098 498 catch~ l7;
#X obj 1136 550 catch~ l8;
#X obj 55 616 throw~ l1;
#X obj 120 733 throw~ l3;
#X obj 87 678 throw~ l2;
#X obj 153 616 throw~ l4;
#X obj 185 678 throw~ l5;
#X obj 252 616 throw~ l7;
#X obj 284 678 throw~ l8;
#X obj 218 732 throw~ l6;
#X text 33 442 PRIOR;
#X obj 55 588 *~;
#X obj 153 588 *~;
#X obj 252 588 *~;
#X obj 87 649 *~;
#X obj 185 649 *~;
#X obj 284 649 *~;
#X obj 120 707 *~;
#X obj 218 707 *~;
#X obj 147 468 r prior-on;
#X obj 31 485 r msg_in;
#X obj 80 169 *~;
#X obj 98 74 r enc;
#X obj 785 222 expr~ $v1+$v2, f 15;
#X obj 820 274 expr~ $v1+$v2;
#X obj 860 324 expr~ $v1+$v2;
#X obj 896 374 expr~ $v1+$v2;
#X obj 935 424 expr~ $v1+$v2;
#X obj 972 474 expr~ $v1+$v2;
#X obj 80 259 throw~ l1;
#X obj 145 376 throw~ l3;
#X obj 112 321 throw~ l2;
#X obj 178 259 throw~ l4;
#X obj 210 321 throw~ l5;
#X obj 277 259 throw~ l7;
#X obj 309 321 throw~ l8;
#X obj 243 375 throw~ l6;
#X obj 80 231 *~;
#X obj 178 231 *~;
#X obj 277 231 *~;
#X obj 112 292 *~;
#X obj 210 292 *~;
#X obj 309 292 *~;
#X obj 145 350 *~;
#X obj 243 350 *~;
#X obj 1010 524 expr~ $v1+$v2;
#X obj 1048 576 expr~ $v1+$v2;
#X msg 139 108 enable \$1;
#X msg 115 494 enable \$1;
#X obj 118 430 r prior-temp;
#X obj 80 192 nn~ nasa.ts encode 8192, f 38;
#X obj 55 525 nn~ nasa.ts prior, f 38;
#X obj 785 607 nn~ nasa.ts decode 8192;
#X connect 0 0 42 0;
#X connect 1 0 45 0;
#X connect 2 0 46 0;
#X connect 3 0 47 0;
#X connect 4 0 48 0;
#X connect 5 0 49 0;
#X connect 6 0 66 0;
#X connect 7 0 67 0;
#X connect 10 0 73 0;
#X connect 13 0 44 1;
#X connect 14 0 71 0;
#X connect 15 0 44 0;
#X connect 16 0 45 1;
#X connect 17 0 46 1;
#X connect 18 0 47 1;
#X connect 19 0 48 1;
#X connect 20 0 49 1;
#X connect 21 0 66 1;
#X connect 22 0 67 1;
#X connect 32 0 23 0;
#X connect 33 0 26 0;
#X connect 34 0 28 0;
#X connect 35 0 25 0;
#X connect 36 0 27 0;
#X connect 37 0 29 0;
#X connect 38 0 24 0;
#X connect 39 0 30 0;
#X connect 40 0 32 1;
#X connect 40 0 34 1;
#X connect 40 0 33 1;
#X connect 40 0 39 1;
#X connect 40 0 38 1;
#X connect 40 0 37 1;
#X connect 40 0 36 1;
#X connect 40 0 35 1;
#X connect 40 0 69 0;
#X connect 41 0 72 0;
#X connect 42 0 71 0;
#X connect 43 0 42 1;
#X connect 43 0 59 1;
#X connect 43 0 65 1;
#X connect 43 0 64 1;
#X connect 43 0 63 1;
#X connect 43 0 62 1;
#X connect 43 0 61 1;
#X connect 43 0 60 1;
#X connect 43 0 58 1;
#X connect 43 0 68 0;
#X connect 44 0 73 0;
#X connect 45 0 73 1;
#X connect 46 0 73 2;
#X connect 47 0 73 3;
#X connect 48 0 73 4;
#X connect 49 0 73 5;
#X connect 58 0 50 0;
#X connect 59 0 53 0;
#X connect 60 0 55 0;
#X connect 61 0 52 0;
#X connect 62 0 54 0;
#X connect 63 0 56 0;
#X connect 64 0 51 0;
#X connect 65 0 57 0;
#X connect 66 0 73 6;
#X connect 67 0 73 7;
#X connect 68 0 71 0;
#X connect 69 0 72 0;
#X connect 70 0 72 0;
#X connect 71 0 58 0;
#X connect 71 1 61 0;
#X connect 71 2 64 0;
#X connect 71 3 59 0;
#X connect 71 4 62 0;
#X connect 71 5 65 0;
#X connect 71 6 60 0;
#X connect 71 7 63 0;
#X connect 72 0 32 0;
#X connect 72 1 35 0;
#X connect 72 2 38 0;
#X connect 72 3 33 0;
#X connect 72 4 36 0;
#X connect 72 5 39 0;
#X connect 72 6 34 0;
#X connect 72 7 37 0;
#X connect 73 0 12 0;
#X connect 73 1 11 0;
#X restore 724 37 pd model;
#N canvas 295 333 327 229 playback 0;
#X obj 22 162 readsf~;
#X obj 22 67 openpanel;
#X msg 22 131 open \$1 \, start;
#X obj 22 96 symbol;
#X obj 22 190 s~ sample_audio;
#X obj 22 37 r load-sample;
#X text 19 15 SAMPLING;
#X connect 0 0 4 0;
#X connect 0 1 3 0;
#X connect 1 0 3 0;
#X connect 2 0 0 0;
#X connect 3 0 2 0;
#X connect 5 0 1 0;
#X restore 595 36 pd playback;
#X text 204 17 Layer Name;
#X obj 18 133 vsl 19 162 -4 4 0 0 off1 off1-set empty 0 -9 0 12 #fcfcfc #000000 #000000 0 1;
#X obj 37 133 vsl 19 162 -4 4 0 0 off2 off2-set empty 0 -9 0 12 #fcfcfc #000000 #000000 0 1;
#X obj 56 133 vsl 19 162 -4 4 0 0 off3 off3-set empty 0 -9 0 12 #fcfcfc #000000 #000000 0 1;
#X obj 75 133 vsl 19 162 -4 4 0 0 off4 off4-set empty 0 -9 0 12 #fcfcfc #000000 #000000 0 1;
#X obj 94 133 vsl 19 162 -4 4 0 0 off5 off5-set empty 0 -9 0 12 #fcfcfc #000000 #000000 0 1;
#X obj 113 133 vsl 19 162 -4 4 0 0 off6 off6-set empty 0 -9 0 12 #fcfcfc #000000 #000000 0 1;
#X obj 132 133 vsl 19 162 -4 4 0 0 off7 off7-set empty 0 -9 0 12 #fcfcfc #000000 #000000 0 1;
#X obj 151 133 vsl 19 162 -4 4 0 0 off8 off8-set empty 0 -9 0 12 #fcfcfc #000000 #000000 0 1;
#X text 707 92 A. Encoding existing audio file;
#X text 708 179 B. Freely traversing latent space;
#X text 723 74 At this point you have two ways to go:;
#X text 723 119 2 Enable encoding so latent codes get generated.;
#X text 709 269 NETWORK BENDING;
#X text 723 132 3 Move the [Latent Code Transposition] sliders to modify the generated audio.;
#X text 726 286 At this point \, you are listening to your model's generation from the distribution of the data that it was trained on. If you want to screw with the behaviour of the model \, you can use the bending interface. The [list layer names] button will print the layer names into the main Pd window. You can copy any layer name from the list and paste it into the [Layer Name] message input. The interface will display current weights of the layers. Modify them using the cursor and the sliders. Click the [BEND] to apply the modification. Click [str] to store the new state of weights in the temporary memory \, and use [res] to restore the weights from the stored state.;
#N canvas 483 201 572 458 mix 0;
#X obj 365 45 r~ sample_audio;
#X obj 157 76 hsl 162 19 0 1 0 0 empty xfade cross-fade -2 -10 0 12 #fcfcfc #000000 #000000 0 1;
#X obj 24 38 r~ model_audio;
#X text 23 16 MIXING;
#X obj 158 137 hsl 162 19 0 1 0 0 empty volume volume -2 -10 0 12 #fcfcfc #000000 #000000 0 1;
#X obj 24 166 *~;
#X obj 140 276 *~;
#X obj 155 162 lop~ 10;
#X obj 41 93 lop~ 10;
#X obj 155 186 pow~ 4;
#X obj 42 118 *~ -1;
#X obj 42 142 +~ 1;
#X obj 24 203 *~;
#N canvas 513 184 916 583 limiter~ 0;
#X obj 27 81 inlet~;
#X floatatom 263 274 5 0 0 0 - - - 0;
#X msg 404 46 10;
#X floatatom 512 98 5 0 0 0 - - - 0;
#X obj 263 236 expr (($f1 - $f3) / $f2) - $f1 + $f3;
#X floatatom 404 140 5 0 0 0 - - - 0;
#X obj 404 21 loadbang;
#X obj 228 137 env~ 1024;
#X floatatom 263 212 5 0 0 0 - - - 0;
#X obj 263 359 dbtorms;
#X floatatom 263 393 12 0 0 0 - - - 0;
#X floatatom 263 335 5 0 0 0 - - - 0;
#X obj 263 308 expr 100 + $f1;
#X obj 27 545 outlet~;
#X obj 27 518 *~;
#X obj 47 491 line~;
#X msg 47 467 \$1 20;
#X floatatom 27 190 5 0 0 0 - - - 0;
#X obj 27 109 delwrite~ comp 100;
#X text 97 466 attack: 20 ms;
#X obj 228 188 moses;
#X floatatom 228 163 5 0 0 0 - - - 0;
#X msg 228 360 1;
#X obj 228 213 bng 15 250 50 0 empty empty empty 0 -6 0 8 #fcfcfc #000000 #000000;
#X msg 73 423 \$1 20;
#X text 123 423 release: 20 ms;
#X obj 27 214 delread~ comp;
#X text 27 16 3.9.1.1. Limiter 3;
#X text 25 47 signal to be limited;
#X text 451 131 limit factor;
#X text 511 74 threshold / reference;
#X text 74 189 forward control;
#X text 310 275 value by which the signal must be reduced;
#X text 389 345 conversion;
#X text 367 386 correction factor of the input signal's rms value;
#X text 453 504 www.pd-tutorial.com;
#X text 462 479 Johannes Kreidler;
#X obj 27 143 loadbang;
#X msg 27 169 20;
#X msg 512 49 85;
#X connect 0 0 7 0;
#X connect 0 0 18 0;
#X connect 1 0 12 0;
#X connect 2 0 5 0;
#X connect 3 0 4 2;
#X connect 3 0 20 1;
#X connect 4 0 1 0;
#X connect 5 0 4 1;
#X connect 6 0 2 0;
#X connect 6 0 39 0;
#X connect 7 0 21 0;
#X connect 8 0 4 0;
#X connect 9 0 10 0;
#X connect 10 0 16 0;
#X connect 11 0 9 0;
#X connect 12 0 11 0;
#X connect 14 0 13 0;
#X connect 15 0 14 1;
#X connect 16 0 15 0;
#X connect 17 0 26 0;
#X connect 20 0 23 0;
#X connect 20 1 8 0;
#X connect 21 0 20 0;
#X connect 22 0 24 0;
#X connect 23 0 22 0;
#X connect 24 0 15 0;
#X connect 26 0 14 0;
#X connect 37 0 38 0;
#X connect 38 0 17 0;
#X connect 39 0 3 0;
#X restore 24 295 pd limiter~;
#X obj 140 246 delread~ sample-lat;
#X obj 140 220 r sample-lat;
#X obj 365 75 delwrite~ sample-lat 500;
#X obj 24 348 dac~ 1 2;
#X connect 0 0 16 0;
#X connect 1 0 8 0;
#X connect 2 0 5 0;
#X connect 4 0 7 0;
#X connect 5 0 12 0;
#X connect 6 0 12 0;
#X connect 7 0 9 0;
#X connect 8 0 6 1;
#X connect 8 0 10 0;
#X connect 9 0 12 1;
#X connect 10 0 11 0;
#X connect 11 0 5 1;
#X connect 12 0 13 0;
#X connect 13 0 17 0;
#X connect 13 0 17 1;
#X connect 14 0 6 0;
#X connect 15 0 14 0;
#X restore 630 14 pd mix;
#X obj 20 368 hsl 162 19 0 1 0 0 xfade empty empty -2 -10 0 12 #fcfcfc #000000 #000000 0 1;
#X obj 20 416 hsl 162 19 0 1 0 0 volume volume-set empty -2 -10 0 12 #ffffff #000000 #000000 0 1;
#X text 16 397 Volume;
#X text 15 349 Cross-fade;
#X text 138 368 sample;
#X text 16 368 model;
#X text 706 16 In order to run your model \, you have to load it first.;
#N canvas 456 234 822 590 init 0;
#X obj 34 9 loadbang;
#X obj 34 65 until;
#X msg 34 37 8;
#X obj 34 109 f;
#X obj 67 98 + 1;
#X obj 67 122 mod 8;
#X obj 34 156 + 1;
#X msg 34 188 \; off\$1-set 0;
#X obj 229 47 r btn-restart;
#X obj 349 45 r btn-randomize;
#X msg 349 434 \; off1-set \$1 \; off2-set \$2 \; off3-set \$3 \; off4-set \$4 \; off5-set \$5 \; off6-set \$6 \; off7-set \$7 \; off8-set \$8;
#X obj 427 80 r rampTime;
#X obj 409 114 f;
#X obj 349 74 t b b;
#X msg 229 125 0 0 0 0 0 0 0 0;
#N canvas 745 314 586 433 8lines 0;
#X obj 93 57 inlet;
#X obj 384 240 line;
#X obj 342 240 line;
#X obj 300 240 line;
#X obj 259 240 line;
#X obj 217 240 line;
#X obj 176 240 line;
#X obj 134 240 line;
#X obj 93 240 line;
#X obj 93 278 pack f f f f f f f f;
#X obj 93 318 outlet;
#X obj 148 57 inlet;
#X text 135 32 ramp time;
#X text 76 32 values;
#X obj 93 191 unpack f f f f f f f f;
#X connect 0 0 14 0;
#X connect 1 0 9 7;
#X connect 2 0 9 6;
#X connect 3 0 9 5;
#X connect 4 0 9 4;
#X connect 5 0 9 3;
#X connect 6 0 9 2;
#X connect 7 0 9 1;
#X connect 8 0 9 0;
#X connect 9 0 10 0;
#X connect 11 0 8 1;
#X connect 11 0 7 1;
#X connect 11 0 6 1;
#X connect 11 0 5 1;
#X connect 11 0 4 1;
#X connect 11 0 3 1;
#X connect 11 0 2 1;
#X connect 11 0 1 1;
#X connect 14 0 8 0;
#X connect 14 1 7 0;
#X connect 14 2 6 0;
#X connect 14 3 5 0;
#X connect 14 4 4 0;
#X connect 14 5 3 0;
#X connect 14 6 2 0;
#X connect 14 7 1 0;
#X restore 349 394 pd 8lines;
#X obj 349 319 pack f f f f f f f f;
#X obj 229 71 t b b;
#X obj 349 177 expr (random(0 \, 10000)/10000.0 - 0.5) * $f2 \; (random(0 \, 10000)/10000.0 - 0.5) * $f2 \; (random(0 \, 10000)/10000.0 - 0.5) * $f2 \; (random(0 \, 10000)/10000.0 - 0.5) * $f2 \; (random(0 \, 10000)/10000.0 - 0.5) * $f2 \; (random(0 \, 10000)/10000.0 - 0.5) * $f2 \; (random(0 \, 10000)/10000.0 - 0.5) * $f2 \; (random(0 \, 10000)/10000.0 - 0.5) * $f2;
#X obj 654 141 r rand-range;
#X obj 115 328 loadbang;
#X msg 115 370 \; rand-range-set 8;
#X msg 102 458 \; volume-set 0.01;
#X connect 0 0 2 0;
#X connect 1 0 3 0;
#X connect 2 0 1 0;
#X connect 3 0 4 0;
#X connect 3 0 6 0;
#X connect 4 0 5 0;
#X connect 5 0 3 1;
#X connect 6 0 7 0;
#X connect 8 0 17 0;
#X connect 9 0 13 0;
#X connect 11 0 12 1;
#X connect 12 0 15 1;
#X connect 13 0 18 0;
#X connect 13 1 12 0;
#X connect 14 0 15 0;
#X connect 15 0 10 0;
#X connect 16 0 15 0;
#X connect 17 0 14 0;
#X connect 17 1 12 0;
#X connect 18 0 16 0;
#X connect 18 1 16 1;
#X connect 18 2 16 2;
#X connect 18 3 16 3;
#X connect 18 4 16 4;
#X connect 18 5 16 5;
#X connect 18 6 16 6;
#X connect 18 7 16 7;
#X connect 19 0 18 1;
#X connect 20 0 21 0;
#X connect 20 0 22 0;
#X restore 538 36 pd init;
#X obj 18 305 bng 19 250 50 0 btn-restart empty empty 0 -10 0 12 #fcfcfc #000000 #000000;
#X text 43 306 Restart;
#X text 723 106 1 Load a sample you want to encode (try training data).;
#X text 788 37 <--- click here and change the model name's;
#X obj 114 305 bng 19 250 50 0 btn-randomize empty empty 0 -10 0 12 #fcfcfc #000000 #000000;
#X text 139 306 Rand;
#X floatatom 114 328 9 0 0 0 - rampTime-set rampTime 10;
#X obj 21 330 hsl 80 12 0 8 0 0 rand-range rand-range-set empty -2 -10 0 12 #fcfcfc #000000 #000000 0 1;
#X obj 140 37 tgl 30 0 prior-on empty Prior 0 -10 0 12 #fcfcfc #000000 #000000 0 1;
#X floatatom 18 68 5 0 500 1 - - sample-lat 10;
#X obj 143 67 hsl 25 14 0 100 0 0 prior-temp empty empty -2 -10 0 12 #fcfcfc #000000 #000000 0 1;
#X text 137 77 temp;
#X text 16 110 Latent Code Transport;
#X text 15 81 lat;
#X text 723 195 1 Simply move the [Latent Code Transport] sliders to generate traverse across different timbres that the model is capable of generating.;
#X msg 207 36;
#X text 823 49 from nasa.ts to your model.;
#X connect 45 0 2 0;
